<?xml version="1.0" encoding="utf-8"?>
<!-- Generator: Adobe Illustrator 19.0.0, SVG Export Plug-In . SVG Version: 6.00 Build 0)  -->
<svg version="1.1" id="Layer_1" xmlns="http://www.w3.org/2000/svg" xmlns:xlink="http://www.w3.org/1999/xlink" x="0px" y="0px"
	 viewBox="0 0 720 480" style="enable-background:new 0 0 720 480;" xml:space="preserve">
<style type="text/css">
	.st0{fill:#FFFFFF;}
</style>
<g id="Layer_6">
	<g id="XMLID_5_">
		<polygon id="XMLID_6_" class="st0" points="92.5,112.9 113.1,112.9 113.1,102.9 82.5,102.9 82.5,377.8 360,377.8 360,367.8 
			92.5,367.8 		"/>
		<polygon id="XMLID_24_" class="st0" points="233.4,102.9 233.4,112.9 627.5,112.9 627.5,367.8 592.9,367.8 592.9,377.8 
			637.5,377.8 637.5,102.9 		"/>
	</g>
</g>
<g id="Layer_2">
	<g id="XMLID_8_">
		<path id="XMLID_3_" class="st0" d="M253.4,230.9c0,41.3-25.2,68.8-62.6,68.8c-35.8,0-61.7-29.3-61.7-64.4s25.9-64.4,63.3-64.4
			c22,0,38.3,10.6,49.6,26.1l-11.6,8.8c-7.9-11.3-20.3-20.6-37.9-20.6c-28,0-48.2,22.4-48.2,50.1s19.4,50.1,46.6,50.1
			c25.2,0,42.9-16.8,46.7-40.2h-50.1v-14.3L253.4,230.9L253.4,230.9z"/>
		<path id="XMLID_9_" class="st0" d="M311.7,256h-27.5v42h-15V172.7h44.6c21.3,0,40.9,15.7,40.9,41.6c0,20.3-12,34.2-27.3,39.5
			l28.2,44.1h-17.3L311.7,256z M284.2,241.7h29.6c13.8,0,25.9-10.2,25.9-27.3c0-17.1-12.2-27.3-25.9-27.3h-29.6V241.7z"/>
		<path id="XMLID_12_" class="st0" d="M421.6,299.7c-29.5,0-48.5-16.6-48.5-53.3v-73.7h15v73.7c0,28.2,13.4,39,33.5,39
			s33.5-10.8,33.5-39v-73.7h15.2v73.7C470.3,283.1,451.3,299.7,421.6,299.7z"/>
		<path id="XMLID_14_" class="st0" d="M573.5,263.2c0,22.4-16.4,34.7-43.4,34.7H491V172.7h36.5c26.1,0,39,13.6,39,32.5
			c0,11.5-5.1,20.5-14.1,26.1C564.7,237.3,573.5,248.6,573.5,263.2z M506.1,224.9h21.3c15.7,0,24-5.8,24-18.9c0-12.2-8.3-19-24-19
			h-21.3L506.1,224.9L506.1,224.9z M558.5,262.5c0-13.8-9.7-23.3-27.5-23.3h-24.9v44.5h24C548.8,283.7,558.5,276.1,558.5,262.5z"/>
	</g>
</g>
<g id="Layer_3">
	<g id="XMLID_7_">
		<path id="XMLID_18_" class="st0" d="M143,94.6h-7v28.2h-5.6V94.6h-4.8v-5.4h4.8v-10h5.6v10h7V94.6z"/>
		<path id="XMLID_20_" class="st0" d="M180.5,103.2v19.7h-5.7v-17.3c0-8.4-3.6-11.6-8.8-11.6c-8,0-11.2,7-11.2,11.8v17.1h-5.7V73.1
			h5.7v22c3.1-3.7,7.4-6.5,13.1-6.5C175.8,88.6,180.5,93.7,180.5,103.2z"/>
		<path id="XMLID_22_" class="st0" d="M219.9,107.8H192c0.2,6.1,4.7,10.6,11.6,10.6c5.5,0,8.8-3,10.3-6l5,0.7
			c-1.3,4.6-6.5,10.4-15.3,10.4c-10.2,0-17.3-7.5-17.3-17.7c0-9.4,6.8-17.3,16.8-17.3c10.3,0,16.8,8.3,16.8,17.8L219.9,107.8
			L219.9,107.8z M192,103.7h22.2c-0.3-5.2-4.5-10-11.1-10C196.8,93.7,192.2,98.2,192,103.7z"/>
	</g>
</g>
<g id="Layer_4">
	<g id="XMLID_2_">
		<path id="XMLID_26_" class="st0" d="M375.2,357.5h5.4l0.3,7.6c2.1-4.8,7.2-8.3,13.5-8.3c9.6,0,17.1,7.8,17.1,17.4
			c0,9.7-7.4,17.5-17.1,17.5c-6.3,0-11.4-3.5-13.5-8.3v22.9h-5.7L375.2,357.5L375.2,357.5z M393.6,386.4c6.9,0,12.2-5.5,12.2-12.1
			c0-6.5-5.3-12-12.2-12c-6.8,0-12.1,5.5-12.1,12C381.5,380.9,386.7,386.4,393.6,386.4z"/>
		<path id="XMLID_29_" class="st0" d="M435.7,358.3l-1,5c-0.7-0.5-2-1.1-3.6-1.1c-5.2,0-7.4,5.8-7.4,12.1V391H418v-33.6h5.4l0.3,4.2
			c2.1-2.9,4.6-4.9,7.8-4.9C433.5,356.8,435,357.6,435.7,358.3z"/>
		<path id="XMLID_31_" class="st0" d="M437.9,374.2c0-9.6,7.7-17.4,17.9-17.4c10.2,0,17.8,7.8,17.8,17.4c0,9.7-7.6,17.5-17.8,17.5
			C445.6,391.8,437.9,383.9,437.9,374.2z M467.9,374.2c0-6.5-5.2-12-12.1-12c-6.8,0-12.1,5.5-12.1,12c0,6.6,5.3,12.1,12.1,12.1
			C462.7,386.4,467.9,380.9,467.9,374.2z"/>
		<path id="XMLID_34_" class="st0" d="M486.1,391.1l-5.3,15.3h-5.9l5.6-15.7v-33.2h5.6L486.1,391.1L486.1,391.1z M480,348.7
			c0-1.9,1.5-3.3,3.3-3.3c1.9,0,3.3,1.4,3.3,3.3c0,1.8-1.4,3.3-3.3,3.3C481.5,351.9,480,350.5,480,348.7z"/>
		<path id="XMLID_37_" class="st0" d="M526.1,376.1h-27.9c0.2,6.1,4.7,10.6,11.6,10.6c5.5,0,8.8-3,10.3-6l5,0.7
			c-1.3,4.6-6.5,10.4-15.3,10.4c-10.2,0-17.3-7.5-17.3-17.7c0-9.4,6.8-17.3,16.8-17.3c10.3,0,16.8,8.3,16.8,17.8V376.1z M498.2,372
			h22.2c-0.3-5.2-4.5-10-11.1-10C503,362,498.4,366.5,498.2,372z"/>
		<path id="XMLID_40_" class="st0" d="M549.9,362.2c-6.4,0-12.3,5.1-12.3,12c0,7,5.8,12.1,12.3,12.1c3.8,0,6.8-1.5,9.6-4.2v5.6
			c-2.6,2.5-6.2,4-10.5,4c-9.8,0-17.4-7.9-17.4-17.5c0-9.4,7.6-17.4,17.4-17.4c4.3,0,7.9,1.5,10.5,4v5.5
			C556.8,363.7,553.7,362.2,549.9,362.2z"/>
		<path id="XMLID_42_" class="st0" d="M582.5,362.9h-7v28.2h-5.6v-28.2h-4.8v-5.4h4.8v-10h5.6v10h7V362.9z"/>
	</g>
	<g id="XMLID_1_">
	</g>
	<g id="XMLID_44_">
	</g>
	<g id="XMLID_45_">
	</g>
	<g id="XMLID_46_">
	</g>
	<g id="XMLID_47_">
	</g>
	<g id="XMLID_48_">
	</g>
</g>
<g id="XMLID_4_">
</g>
<g id="XMLID_10_">
</g>
<g id="XMLID_11_">
</g>
<g id="XMLID_13_">
</g>
<g id="XMLID_15_">
</g>
<g id="XMLID_16_">
</g>
</svg>
